<svg id="Layer_1" data-name="Layer 1" xmlns="http://www.w3.org/2000/svg" viewBox="0 0 826.23 333.04"><defs><style>.cls-1{fill:#fff;stroke-width:2px;}.cls-1,.cls-2{stroke:#274251;stroke-miterlimit:10;}.cls-2{font-size:68px;fill:#274251;stroke-width:3px;font-family:InkFree, Ink Free;letter-spacing:-0.02em;}</style></defs><title>LogoBlue</title><g id="layer1"><g id="g7313"><g id="g7308"><g id="text853"><path class="cls-1" d="M370,486.79V490a1.57,1.57,0,0,0,.39,1.13,6.54,6.54,0,0,0,1-3.81A2.23,2.23,0,0,0,370,486.79Z" transform="translate(-221.87 -194.39)"/><path class="cls-1" d="M994.68,486.79v6.44a13.5,13.5,0,0,1,1.45-4.83A1.48,1.48,0,0,0,994.68,486.79Z" transform="translate(-221.87 -194.39)"/><path class="cls-1" d="M291.31,493.23v3.22c0,1.61,0,1.61,1.46,1.61v-3.22C292.77,493.23,292.77,493.23,291.31,493.23Z" transform="translate(-221.87 -194.39)"/><path class="cls-1" d="M223.26,526.34H1047.1v-.91h-7.28V499.67c-10.19,0-16,0-17.47-1.61-1.46-3.22-1.46-6.44-1.46-9.66v-9.66c-2.91-1.61-2.91-1.61-2.91,0,0-8.05-1.46-14.48-7.28-17.71V454.6c0-3.22-1.46-4.83-2.92-4.83-1.45,3.22-1.45,6.43-1.45,12.87-5.83,1.62-7.28,8.05-7.28,17.71h-2.92v11.27c0,6.44-2.91,8.05-7.28,8.05,1.46-25.76,1.46-38.63,1.46-40.24-2.91,0-4.37-1.61-4.37-6.44v-8.05c0,1.61,0,1.61-1.46,1.61h-2.91v4.83c0,1.61,0,1.61,1.46,1.61,0,4.83-2.91,8.05-4.37,9.66,0,0,1.46,12.88,1.46,38.63-4.37-1.61-5.83-1.61-5.83,0v-8h-8.74V467.48h-5.82c-1.46-11.27-4.37-17.71-7.28-20.93,0-3.22,0-6.44-1.46-9.66a30.79,30.79,0,0,1-1.46,8.05c0,3.22-1.45,4.83-2.91,6.44,0-1.61-1.45-4.83-1.45-8.05-1.46,0-1.46-1.61-1.46-3.22v-4.83a8.65,8.65,0,0,0-4.37-6.44c-2.91-3.22-4.37-4.83-4.37-6.44a31.21,31.21,0,0,0-1.45-9.66c0-4.83-1.46-6.44-2.92-8.05a120.09,120.09,0,0,0-1.45,16.1c-4.37,3.22-7.28,12.88-11.65,27.37-1.46,0-2.92-3.22-2.92-6.44a18.09,18.09,0,0,0-1.45-6.44v9.66c-1.46,1.61-4.37,4.83-4.37,9.66-1.46,6.44-2.91,11.27-2.91,11.27a1.48,1.48,0,0,0-1.46-1.61c-1.46,0-1.46,0-2.91-1.61A195.79,195.79,0,0,1,900,488.4h-7.28c0,1.61,0,1.61-1.46,1.61,1.46,3.22,2.92,4.83,1.46,6.44-4.37-3.22-7.28-6.44-7.28-11.27a10.18,10.18,0,0,1-5.83-1.61,12.05,12.05,0,0,1-5.82-6.44c-2.91,0-7.28,1.61-16,0H843.23c0-1.61,0-3.21-1.46-8,0-3.22,0-6.44-1.45-8-1,6.35-1.91,9.91-2,11.6a7.71,7.71,0,0,1-.88,1.28c-1.45,0-1.45-1.62-1.45-1.62v-3.22c0-3.21-1.46-8-1.46-14.48A57.26,57.26,0,0,1,833,441.72v-4.83c0-1.61,0,0-1.46,3.22,0,0,0,6.44-2.91,22.53v9.66c-1.46,3.22-1.46,3.22-1.46,1.61l-1.46-3.22v3.22c0,1.61,0,1.61-1.45,0,0-4.83,0-9.65-1.46-11.26a80.52,80.52,0,0,0-1.45,12.87l2.91,1.61c-2.91,0-7.28,1.61-14.56,1.61H790.8v-6.43c0-1.61,0-4.83,1.46-6.44-1.46-1.61-1.46-4.83-1.46-9.66,0-6.44,0-9.66-1.45-12.88-4.37,0-5.83,0-7.28-1.61,0,1.61,0,3.22-1.46,1.61a1.48,1.48,0,0,1-1.46-1.61c0-1.61,0-1.61-1.45-1.61-2.91,4.83-2.91,14.49-4.37,29,0,16.09-1.46,27.36-1.46,33.8v-3.22c-1.45,0-1.45,1.61-2.91,3.22,0,1.61-1.46,1.61-2.91,1.61,1.45-3.22,1.45-6.44,0-11.27h-4.37V490c0-1.61,0-1.61-1.46-1.61a5.83,5.83,0,0,0-1.45,3.22v1.61h-2.92V490c0-1.61,0-1.61-1.45-1.61s-1.46,1.61-1.46,3.22,0,1.61-1.45,1.61c-1.46-27.36-1.46-45.07,0-54.73-1.46,0-2.92-1.61-2.92-4.83s-1.45-4.83-1.45-6.44c0,4.83-1.46,8-2.91,12.88,1.45,4.83,1.45,12.88,1.45,24.15V490c-5.82-1.61-8.74-1.61-7.28-1.61a211.3,211.3,0,0,0-1.46-24.14c-2.91,0-4.36-1.61-5.82-6.44,0-1.61-1.46-1.61-1.46-4.83,0-1.61-1.45-3.22-1.45-4.83-2.92,6.44-2.92,9.66-2.92,9.66-1.45,3.22-2.91,4.83-7.28,4.83,0,3.22-1.45,11.27-1.45,24.14a25.78,25.78,0,0,0-10.2,1.62,5.87,5.87,0,0,1-1.45-3.22c0-1.61-1.46-3.22-2.92-1.61,0-14.49,0-22.54-1.45-24.15-1.46,3.22-1.46,8.05-1.46,16.1s0,11.26-1.45,12.88h-2.92v-4.83c-1.45-1.61-2.91-1.61-2.91,0V464.26H683c-4.37,0-5.82,0-7.28-1.61v-6.44a1.48,1.48,0,0,0-1.45,1.61c-1.46,0-1.46,0-1.46,1.61v-1.61a1.48,1.48,0,0,1-1.46,1.61,5.24,5.24,0,0,1,1.46-3.22c-1.46-1.61-1.46-1.61-2.91,0,0,1.61-1.46,1.61-1.46,3.22a5,5,0,0,0-4.37-1.61c0,4.83,0,6.44-1.45,8.05-7.29,0-11.65,1.61-13.11,1.61,0,6.44,0,11.27-1.46,12.88-1.45,0-1.45,0-1.45-1.61h0c-2.92,0-4.37,0-5.83-3.22,0,1.61-1.45,3.22-4.37,3.22,0,1.61-1.45,0-4.37-3.22,0-1.61,0-9.66-1.45-25.76v-6.44c0-1.61,0-1.61-1.46,0,0-6.44-2.91-11.27-8.74-12.88,1.46-4.83,0-9.66,0-12.88,0,1.61,0,3.22-1.45,1.61v-6.44c0-3.22,0-4.83-1.46-6.44v6.44c0,3.22,0,4.83-1.45,4.83,0-1.61,0-1.61-1.46-1.61v12.88c1.45,0,1.46,0,1.46,1.61,1.45,1.61,0,1.61,0,3.22a13.71,13.71,0,0,0-1.46-4.83v1.61c-.33.18-.64.37-1,.56a14.58,14.58,0,0,0,1,2.66c-1.46,0-1.46,0-1.46-1.61,0-.3,0-.52,0-.73-4.86,3.22-7.41,8-8.74,16.83v27.37c-2.92,0-4.37,0-4.37,3.22,0,0,0-1.61-2.91-3.22,0,3.22-1.46,4.83-4.37,3.22a3.31,3.31,0,0,1-2.92-3.22v3.22H584a21.21,21.21,0,0,0,1.46,8.05c0,3.22-1.46,4.83-2.92,4.83V457.82c2.92-1.61,2.92-3.22,4.37-4.83-2.91,0-4.37,0-4.37-3.22v-3.22c0-1.61,1.46-1.61,1.46-3.22-4.37-3.22-8.74-3.22-11.65-1.61-8.74-1.61-23.3-1.61-40.78-1.61-7.28,0-11.65,0-14.56,1.61,1.46,1.61,1.46,3.22,1.46,6.44,0,1.47-1.24,2.94-3.67,4.41a12.59,12.59,0,0,1,2.21,3.64V490h-4.37c-1.45-9.66-2.91-14.49-2.91-17.71,0,3.22-1.46,6.44-1.46,11.27a46.8,46.8,0,0,0-1.45,11.26c0-1.61-4.37-9.66-11.65-22.53-4.37-9.66-7.28-17.71-5.83-27.37h-5.82c-4.37-14.49-8.74-30.59-13.11-49.91,2.91-3.22,4.37-4.83,1.46-8h-1.46v1.61c-5.78-27.18-8.69-76.58-11.59-148.19a7.6,7.6,0,0,0,1.4-8c-1.46-4.83-1.46-6.44-1.46-8-2.91-1.61-5.82-6.44-5.82-14.49,0-9.66,0-14.49-1.46-14.49V213.1s0,1.61-1.46,6.44v3.22c-2.91,3.22-4.36,3.22-4.36,3.22v4.83c-1.46,0-1.46,0-1.46,1.61v3.22c1.46,1.61,1.46,3.22,1.46,4.83a5.83,5.83,0,0,0,1.45,3.22c-3.3,48.42-6.14,84.38-8.24,107.92a4.78,4.78,0,0,1,1-.05c1.46,1.61,1.46,1.61,2.91,1.61l-1.45,3.22a1.48,1.48,0,0,1-1.46-1.61,1.44,1.44,0,0,0-1.11-1.56c-1.52,17-2.65,27.16-3.26,30.54-1.45,0-2.91,0-2.91,1.61s0,1.61-1.46,1.61c0,1.61,0,1.61,1.46,3.22a5.24,5.24,0,0,1,1.46,3.22c-8.74,30.59-13.11,46.69-14.57,48.3h-5.82v1.61h1.46c0,1.61,0,3.22,1.45,3.22l-1.45,1.61c-1.46,0-1.46,0-1.46,1.61a32,32,0,0,1-5.83,17.71,85.13,85.13,0,0,1-4.36,8c-1.46,3.22-2.92,6.44-4.37,8.05,0-1.61-1.46-3.22-2.92-4.83-1.45,0-1.45,0-1.45,1.61s0,1.61-1.46,1.61c0,0-1.45-3.22,0-4.83v-4.83H391.8c-1.46,1.61-1.46,1.61-2.92,1.61,0-3.22-1.45-3.22-2.91-3.22H381.6c-1.45,0-1.45,3.22-1.45,8.05s0,8.05-1.46,8.05c0-1.61-1.46-6.44-1.46-12.88a21.33,21.33,0,0,0-1.45-8.05v-8.05c0-4.83,0-6.44-1.46-8.05,0-1.61-1.46,0-2.91,3.22V461c0,4.83,0,8,1.45,9.66-1.45,0-1.45,1.61,0,3.22a2.39,2.39,0,0,1,0,3.22v-1.61c0,1.34-1,3.8-1.34,6.45,1.33.09,1.34,1.59,1.34,1.59a3.87,3.87,0,0,1-1.45,1.09c0,1,0,1.92-.05,2.67a1.74,1.74,0,0,1,.05,2.68v1.61h0a1.62,1.62,0,0,1-1.07-.48,4.41,4.41,0,0,1-.39.49H367V436.89c-1.46,0-2.91-1.61-2.91-4.83v1.61a3.31,3.31,0,0,1-2.92,3.22h-7.28V454.6H351c-1.46,0-1.46,0-2.91,1.61s-1.46,4.83-2.91,11.27c0,4.83-1.46,9.66-2.92,11.27V417.57H263.65v66c-1.46,0-1.46,1.61-2.92,3.22,0,3.22-1.45,3.22-1.45,4.83a75.22,75.22,0,0,1-1.46-27.37V446.55a10.14,10.14,0,0,0-5.82,1.61,10.18,10.18,0,0,1-5.83,1.61c-1.45,3.22-1.45,9.66-1.45,17.71V486.8s0-1.61-1.46-1.61-1.46,0-1.46,1.61c0-1.61-1.45-4.83-1.45-8.05a21.21,21.21,0,0,0-1.46-8.05c-1.46-4.83-2.91-8.05-5.82-6.44s-4.37,1.61-2.92,1.61c-2.91,3.22-2.91,9.66-2.91,20.93,0,16.1,1.46,24.15,0,24.15h-4.37v15.41ZM1018,486.79s1.45,0,0,1.61ZM885.46,499.67c2.91,1.61,4.37,4.83,4.37,11.27h-4.37ZM681.59,504.5c1.45-4.83,4.36-4.83,5.82-1.61l1.46,8.05c-1.46-1.61-1.46-1.61-2.92,0a19.88,19.88,0,0,1-2.91,4.83C681.59,512.55,680.13,509.33,681.59,504.5Zm-16-8.05c1.45-6.44,4.37-8.05,10.19-3.22q2.19,4.83,0,14.49c-1.46-1.61-1.46-1.61-1.46,0-1.45-1.61-1.45-3.22-2.91-1.61-1.45,0-1.45,1.61-2.91,3.22C664.11,506.11,664.11,501.28,665.57,496.45Zm-11.65,3.22c2.91-3.22,4.37-3.22,5.82,1.61s1.46,8.05,0,11.27l-2.91-3.22c-1.46-1.61-1.46-3.22-2.91-3.22Zm-118-8.05c0-4.83,0-8.05,1.46-9.66a10.59,10.59,0,0,1,7.28-3.22c2.91,0,5.82,0,7.28,1.61a9,9,0,0,1,4.37,8V490h-1.46v24.15c-1.45-1.61-1.45-3.22-1.45-4.83h-7.28v-3.22c-1.46,0-1.46,0-1.46,1.61s0,1.61-1.46,1.61c0-4.83-1.45-6.44-2.91-4.83,0-3.22,0-6.44-1.46-8.05-1.45,0-1.45,1.61-2.91,3.22a7.49,7.49,0,0,1-1.45-4.83C534.51,493.23,534.51,491.62,536,491.62Zm-43.69,9.66s1.46-1.61,1.46,0h2.91s-1.45,1.61-2.91,1.61S490.82,502.89,492.27,501.28ZM485,488.4h1.46c1.46,0,1.46,1.61,1.46,1.61H485Zm-5.82-29h2.91v3.21c0,1.62,0,1.62-1.46,1.62s-1.45,0-1.45-1.62Zm-1.46,29,1.46,1.61s0,1.61-1.46,1.61c-1.45-1.61-1.45-1.61-1.45-3.22Zm-10.19-3.22a3.31,3.31,0,0,1,2.91-3.22c1.46,0,1.46,1.61,0,3.22l1.46,1.61a1.48,1.48,0,0,0,1.45,1.61h-1.45c-1.46-1.61-1.46-1.61-2.92-1.61l1.46-1.61C469,486.79,469,486.79,467.52,485.18Zm4.37-25.75c0-1.61,1.45-1.61,2.91-1.61V461Zm0-1.61h-1.46l1.46-1.61h1.45C473.34,457.82,473.34,457.82,471.89,457.82Zm0-6.44a1.9,1.9,0,0,1-2.92,0c-1.45,0-1.45-1.61-1.45-1.61A6,6,0,0,0,471.89,451.38Zm-5.83-17.71c1.46,0,1.46,0,1.46,1.61h-2.91C464.61,433.67,464.61,433.67,466.06,433.67Zm1.46,40.24c-2.91,4.83-2.91,4.83-2.91,0Zm-2.91,9.66a5.26,5.26,0,0,1,1.45-3.22c1.46,0,1.46,1.61,1.46,1.61l-1.46,3.22a1.48,1.48,0,0,1-1.45-1.61h-2.92c0-1.61,0-1.61,1.46-3.22C464.61,480.35,464.61,482,464.61,483.57Zm-2.92-19.31h-2.91v-4.83h2.91Zm0,9.65v4.83a5.26,5.26,0,0,1-1.45-3.22C460.24,473.91,460.24,473.91,461.69,473.91Zm0-29h-1.45a1.48,1.48,0,0,1-1.46-1.61C461.69,443.33,461.69,444.94,461.69,444.94ZM453,388.59v1.61s0,1.61-1.46,0V387c4.37,1.61,5.83,3.22,5.83,3.22a1.9,1.9,0,0,1-2.92,0c0,1.61,0,1.61-1.45,1.61C454.41,390.2,454.41,390.2,453,388.59Zm0-4.83s0-1.61,1.45,0v1.61c1.46,0,1.46-1.61,2.91,0,0-1.61,0-1.61,1.46-1.61C457.33,388.59,455.87,388.59,453,383.76Zm2.91-8.05c-1.46,0-1.46,0-1.46-1.61a1.48,1.48,0,0,0-1.45-1.61h5.82Zm-2.91-8a1.48,1.48,0,0,1,1.45,1.61,1.48,1.48,0,0,0,1.46,1.61h-1.46A1.87,1.87,0,0,1,453,367.66Zm2.91-3.22h-1.46c-1.45,0-2.91-1.61-2.91-1.61h2.91C454.41,364.44,454.41,364.44,455.87,364.44ZM453,354.78c-1.46,1.61-1.46,0-1.46-3.22H453l1.45,1.61C454.41,354.78,454.41,354.78,453,354.78Zm1.45,4.83c0,1.61,0,1.61-2.91,0V358H453Zm0-16.1c-.66-.74-1.33-1.13-1.86-1a2.54,2.54,0,0,1,.41-.57C454.41,341.9,454.41,341.9,454.41,343.51Zm1.46,37c1.45,1.61,0,1.61,0,0-1.46,0-1.46,1.61-2.91,0H450C451.5,377.32,454.41,377.32,455.87,380.54Zm-4.37,27.37c1.46,1.61,1.46,3.22,1.46,4.83a1.48,1.48,0,0,1-1.46-1.61,1.48,1.48,0,0,0-1.46-1.61C448.59,407.91,450,407.91,451.5,407.91ZM450,416l1.46,1.61h-5.82a1.48,1.48,0,0,1,1.45-1.61Zm-2.91-6.44v3.22c-1.19,0-1.4,0-1.44-.9a1.85,1.85,0,0,1-1.47-.71h0a1.48,1.48,0,0,1,1.46-1.61c0,.34,0,.59,0,.8C445.74,409.53,446,409.52,447.13,409.52Zm-1.45-1.61c0,1.61,0,1.61-1.46,1.61s-1.46,1.61-1.46,1.61h-1.45v-3.22h1.45V406.3C442.76,407.91,444.22,407.91,445.68,407.91Zm-5.83-25.76c0,3.22,0,3.22-1.46,4.83-1.45-1.61-1.45-1.61,0-3.22a1.48,1.48,0,0,0,1.46-1.61C441.31,380.54,442.76,380.54,439.85,382.15Zm1.46-11.27s-1.46,1.61-1.46,0h-.13a20.65,20.65,0,0,0,.13-3.22c1.46,0,1.46,0,1.46,1.61Zm0-12.88h.07c-.46.43-1,1-1.53,1.61Zm-1.46,4.83c1.46,0,1.46,0,2.91,1.61-1.45,1.61-1.45,0-2.91,0,0-1.61,0-1.61-1.46-1.61Zm-1.46,11.27h2.92a1.48,1.48,0,0,1-1.46,1.61c-1.46-1.61-1.46-1.61-2.91-1.61Zm0,4.83h2.92a5.81,5.81,0,0,1-1.46,3.22h-2.91C438.39,380.54,439.85,378.93,438.39,378.93ZM434,390.2a5.26,5.26,0,0,0,1.45-3.22l2.91,1.61v1.61H434Zm7.28,29H453c4.36,22.54,7.28,33.81,7.28,37H434C435.48,449.77,438.39,436.89,441.31,419.18Zm11.22,55.17a1.56,1.56,0,0,1,.43,1.17c0,1.61,1.45,1.61,1.45,3.22a4.3,4.3,0,0,0-2.91-1.61v-3.22h0C452.4,474.91,452.74,474.67,452.53,474.35Zm.43-11.7c-1.46,0-1.46,0-1.46-1.61v-3.22h2.91c1.46,0,1.46,0,1.46,3.22,0,1.61,0,3.22-1.46,3.22V461C454.41,462.65,454.41,462.65,453,462.65Zm2.91,12.87c1.45-1.61,1.45-3.22,1.45-1.61,0,0,1.46,1.61,0,1.61a1.48,1.48,0,0,1-1.45,1.61c-1.46,0-1.46-1.61-1.46-3.22C455.87,473.91,455.87,473.91,455.87,475.52Zm-8.12,1.4a6.38,6.38,0,0,1-.62-3v1.61c0-1.61,0,0-1.45,1.61h-1.46v-1.61c0-1.61,1.46-1.61,2.91-1.61,1.46-1.61,1.46-1.61,2.91,0A6.15,6.15,0,0,1,447.75,476.92Zm-3.53-12.66a13.37,13.37,0,0,1,1.46-4.83h2.91c1.45,3.21,1.45,4.83,0,4.83Q450.77,461.85,444.22,464.26Zm-13.11,14.48c-1.45-1.61-1.45,0-1.45,0v-4.83c1.45,0,1.45,0,1.45-1.61v1.61C429.66,477.13,429.66,477.13,431.11,478.74Zm0,3.22c1.46,0,1.46,0,1.46,1.61-1.46,0-2.91,0-2.91-1.61C429.66,482,431.11,480.35,431.11,482Zm0-6.44h1.46l1.46-1.61v4.83s0-1.61-1.46-1.61Zm0-11.26a2.39,2.39,0,0,0,0-3.22l1.46,1.61v-3.22c0-1.61,1.46-1.61,2.91-1.61v4.82Zm0-17.71c1.46,0,2.92,0,2.92,1.61C432.57,448.16,431.11,448.16,431.11,446.55Zm4.37,29v-1.61l1.46,1.61h1.45a3.31,3.31,0,0,1-2.91,3.22l1.46-1.61S436.94,475.52,435.48,475.52Zm1.46-11.26v-4.83h4.37v3.62A16.25,16.25,0,0,0,436.94,464.26Zm5.82,9.65s1.46,1.61,0,1.61a1.48,1.48,0,0,1-1.45,1.61c-1,0-1.3-.74-1.41-1.72C441.34,472.31,442.76,472.32,442.76,473.91Zm-10.19-29h-2.91a5,5,0,0,1,4.37-1.61C434,444.94,434,444.94,432.57,444.94Zm-5.83-11.27c1.46,0,2.92,0,2.92,1.61h-2.92ZM429.66,482v3.22c-1.46,0-1.46-1.61-2.92-3.22C426.74,480.35,428.2,482,429.66,482Zm-2.92-32.19c0,1.61,0,1.61-1.45,1.61h-2.91S425.29,449.77,426.74,449.77Zm-1.45,37c0-1.61,0-3.22-1.46-3.22a1.48,1.48,0,0,1,1.46-1.61c1.45,0,1.45,1.61,1.45,3.22s0,1.61-1.45,1.61c-1.46,1.61-2.91,1.61-2.91,0S423.83,485.18,425.29,486.79Zm4.37,1.61q8.73-4.83,21.84-4.83c7.28,0,14.56,3.22,20.39,6.44,5.82,4.83,10.19,9.66,11.65,17.71a1.48,1.48,0,0,1-1.46-1.61c-2.91,1.61-2.91,0-4.37,0-1.45,1.61-2.91,1.61-2.91,3.22V498.06l-1.46,1.61h-2.91v9.66a5,5,0,0,1-4.37-1.61c-1.45-1.61-4.37-1.61-5.82-1.61,0,1.61-1.46,1.61-2.92,1.61s-2.91,1.61-2.91,1.61v-3.22c0-1.61-1.45-1.61-2.91,0,0-3.22,0-4.83-1.46-6.44a19.88,19.88,0,0,0-2.91-4.83,1.48,1.48,0,0,0-1.45,1.61c0,1.61-1.46,0-1.46-1.61-1.46,1.61-1.46,3.22-1.46,6.44,0,4.83,0,6.44-1.45,8.05-1.46,0-1.46-1.61-2.92-3.22a5.83,5.83,0,0,0-1.45-3.22,5.81,5.81,0,0,0-1.46,3.22,5.83,5.83,0,0,1-1.45,3.22c-1.46,0-1.46-1.61-1.46-3.22s0-3.22-1.46-4.83c-1.45,0-1.45,1.61-2.91,3.22,0,3.22-1.46,3.22-1.46,3.22l-2.91-6.44c-1.45,0-1.45,1.61-2.91,3.22a5.81,5.81,0,0,1-1.46,3.22c-1.45,0-1.45,0-1.45-1.61s0-1.61-1.46-1.61A23.14,23.14,0,0,1,429.66,488.4Zm-13.11,0H418V490h-2.92C413.64,490,413.64,490,416.55,488.4Zm-10.19,0a2.25,2.25,0,0,1,2.26.91,15.19,15.19,0,0,1-3.72.7A1.48,1.48,0,0,1,406.36,488.4Zm0,6.44c1.45,0,1.45,0,1.45-1.61,1.46,0,1.46,1.61,0,1.61a5,5,0,0,1-4.37,1.61C403.44,494.84,404.9,494.84,406.36,494.84Zm-4.63,7.52a15.46,15.46,0,0,1-4.11.53Q399.68,498.35,401.73,502.36Zm-27.41-44.22c0-.38,0-.74,0-1.09,0,.25,0,.51,0,.77Zm-1.46-.32c0,1.58,0,1.61,1.4,1.61-.12.92-.45,1.61-1.4,1.61Zm0,9.66v-4.83c1.46,0,1.46,0,1.46,1.61,0,0,0,1.61,1.46,1.61A4.33,4.33,0,0,1,372.86,467.48Zm-83,45.07h-4.37c-1.46-3.22-4.37-3.22-5.83-3.22V504.5c2.92,1.61,5.83,1.61,10.2,1.61Zm0-38.64h-10.2V462.65h10.2Zm11.65,38.64h-10.2v-6.44a42.42,42.42,0,0,0,10.2,1.61Zm-10.2-24.15c1.46,0,1.46,0,1.46-1.61v-1.61a5.36,5.36,0,0,0-.36-1.66,1.2,1.2,0,0,0,.36.05V482a3.68,3.68,0,0,0-.58.89,17.42,17.42,0,0,1-.88-5.72c0-3.21,0-4.83,1.46-4.83-1.46-1.61-1.46-4.82-1.46-8,0-4.83,0-6.44,1.46-6.44,0-1.61,0-1.61-1.46-1.61V453h30.58C319,480.35,319,493.23,319,493.23h-8.74V490h-1.45c-1.46,0-1.46,1.61-1.46,3.22v3.22c-1.45,0-2.91,0-1.45,1.61-1.46,0-1.46-1.61,0-3.22-1.46,0-2.92,0-2.92,1.61v3.22c-1.45,0-1.45,0-2.91-1.61-1.46,0-1.46-1.61-2.91-1.61,0,0-1.46,1.61-2.91,1.61-1.46,1.61-1.46,1.61-2.92,1.61Zm-11.65-32.19h10.2v3.22c-7.28,0-10.2-1.61-10.2,0Zm0,19.31h10.2V488.4c-2.92-1.61-5.83-1.61-10.2,0Zm0,22.54v-6.44c1.46,0,5.83-1.61,10.2-1.61v11.27a29.9,29.9,0,0,1-10.2,1.61S278.21,501.28,279.66,498.06Z" transform="translate(-221.87 -194.39)"/><path class="cls-1" d="M585.47,483.57Z" transform="translate(-221.87 -194.39)"/></g></g></g></g><text class="cls-2" transform="translate(279.31 205.02)">Urban Adventures</text></svg>