<svg id="Layer_1" data-name="Layer 1" xmlns="http://www.w3.org/2000/svg" viewBox="0 0 626.96 252.34"><defs><style>.cls-1{fill:none;stroke:#3f5057;stroke-miterlimit:10;}.cls-2{isolation:isolate;font-size:76px;fill:#3f5057;font-family:BodoniSvtyTwoITCTT-Bold, "Bodoni 72";font-weight:700;}</style></defs><title>NewLogo</title><g id="layer1"><g id="g7313"><g id="g7308"><g id="text853"><path class="cls-1" d="M226.85,263v2.44a1.19,1.19,0,0,0,.29.85,4.91,4.91,0,0,0,.76-2.89A1.67,1.67,0,0,0,226.85,263Z" transform="translate(-114.61 -41.27)"/><path class="cls-1" d="M701.26,263v4.89a10.47,10.47,0,0,1,1.1-3.67,1.12,1.12,0,0,0-1-1.22Z" transform="translate(-114.61 -41.27)"/><path class="cls-1" d="M167.09,267.92v2.44c0,1.23,0,1.23,1.11,1.23v-2.45C168.2,267.92,168.2,267.92,167.09,267.92Z" transform="translate(-114.61 -41.27)"/><path class="cls-1" d="M115.41,293.06H741.07v-.69h-5.53V272.81c-7.74,0-12.15,0-13.26-1.22a16.94,16.94,0,0,1-1.11-7.34v-7.33c-2.21-1.23-2.21-1.23-2.21,0,0-6.12-1.11-11-5.53-13.45v-4.89c0-2.44-1.11-3.67-2.22-3.67-1.1,2.45-1.1,4.89-1.1,9.78-4.43,1.23-5.53,6.11-5.53,13.45h-2.22v8.56c0,4.89-2.21,6.11-5.53,6.11,1.11-19.56,1.11-29.34,1.11-30.56-2.21,0-3.32-1.22-3.32-4.89v-6.11c0,1.22,0,1.22-1.1,1.22h-2.21v3.67c0,1.22,0,1.22,1.1,1.22a10.88,10.88,0,0,1-3.31,7.34s1.1,9.78,1.1,29.33c-3.31-1.22-4.42-1.22-4.42,0V268h-6.64v-19.6h-4.42c-1.11-8.56-3.32-13.45-5.53-15.89a16.94,16.94,0,0,0-1.11-7.34,23.17,23.17,0,0,1-1.11,6.12,6.59,6.59,0,0,1-2.21,4.89c0-1.23-1.1-3.67-1.1-6.12-1.11,0-1.11-1.22-1.11-2.44v-3.67a6.57,6.57,0,0,0-3.32-4.89c-2.21-2.45-3.32-3.67-3.32-4.89a23.42,23.42,0,0,0-1.1-7.34c0-3.67-1.11-4.89-2.21-6.11a91,91,0,0,0-1.11,12.22c-3.31,2.45-5.52,9.79-8.84,20.79-1.11,0-2.22-2.44-2.22-4.89a13.76,13.76,0,0,0-1.1-4.89v7.34a10.78,10.78,0,0,0-3.32,7.33c-1.11,4.89-2.21,8.56-2.21,8.56a1.13,1.13,0,0,0-1-1.22h-.09c-1.11,0-1.11,0-2.21-1.22a148.64,148.64,0,0,1-1.12,19.55h-5.53c0,1.22,0,1.22-1.11,1.22,1.11,2.45,2.22,3.67,1.11,4.89-3.32-2.44-5.53-4.89-5.53-8.55a7.72,7.72,0,0,1-4.43-1.23,9.13,9.13,0,0,1-4.42-4.89c-2.21,0-5.53,1.23-12.15,0H586.24a17.55,17.55,0,0,0-1.11-6.07c0-2.45,0-4.89-1.1-6.08-.76,4.82-1.45,7.53-1.52,8.81a5.92,5.92,0,0,1-.66,1c-1.11,0-1.11-1.23-1.11-1.23v-2.44c0-2.44-1.1-6.08-1.1-11a43,43,0,0,1-1.17-9.85v-3.67c0-1.22,0,0-1.11,2.45,0,0,0,4.89-2.2,17.11V252c-1.11,2.45-1.11,2.45-1.11,1.23l-1.11-2.45v2.45c0,1.22,0,1.22-1.1,0,0-3.67,0-7.33-1.11-8.55a60.51,60.51,0,0,0-1.1,9.77l2.21,1.22c-2.21,0-5.53,1.23-11.06,1.23H546.42V252c0-1.22,0-3.67,1.11-4.89-1.11-1.22-1.11-3.67-1.11-7.34,0-4.89,0-7.33-1.1-9.78-3.32,0-4.42,0-5.53-1.22,0,1.22,0,2.45-1.1,1.22a1.13,1.13,0,0,1-1.12-1.13.28.28,0,0,1,0-.09c0-1.22,0-1.22-1.1-1.22-2.21,3.67-2.21,11-3.32,22,0,12.22-1.11,20.78-1.11,25.67v-2.44c-1.1,0-1.1,1.22-2.21,2.44,0,1.22-1.11,1.22-2.21,1.22,1.1-2.44,1.1-4.89,0-8.56h-3.32v-2.46c0-1.23,0-1.23-1.11-1.23a4.5,4.5,0,0,0-1.1,2.45v1.22h-2.22v-2.44c0-1.23,0-1.23-1.1-1.23s-1.11,1.23-1.11,2.45,0,1.22-1.1,1.22c-1.11-20.78-1.11-34.23,0-41.56-1.11,0-2.22-1.23-2.22-3.67s-1.1-3.67-1.1-4.89c0,3.67-1.11,6.07-2.21,9.78,1.1,3.67,1.1,9.78,1.1,18.34v19.56c-4.42-1.23-6.63-1.23-5.53-1.23a160.58,160.58,0,0,0-1.1-18.33c-2.21,0-3.32-1.22-4.42-4.89,0-1.22-1.11-1.22-1.11-3.67,0-1.22-1.1-2.44-1.1-3.67-2.22,4.89-2.22,7.34-2.22,7.34-1.1,2.45-2.21,3.67-5.53,3.67,0,2.44-1.1,8.56-1.1,18.33a19.5,19.5,0,0,0-7.75,1.23,4.47,4.47,0,0,1-1.1-2.44c0-1.23-1.11-2.45-2.22-1.23,0-11,0-17.11-1.1-18.34-1.11,2.45-1.11,6.12-1.11,12.23s0,8.55-1.1,9.78h-2.22v-3.67c-1.1-1.22-2.21-1.22-2.21,0V245.92h-6.66c-3.32,0-4.42,0-5.53-1.22v-4.9a1.14,1.14,0,0,0-1.11,1.15.25.25,0,0,0,0,.08c-1.11,0-1.11,0-1.11,1.22V241a1.14,1.14,0,0,1-1,1.22h-.09a4,4,0,0,1,1.11-2.45c-1.11-1.22-1.11-1.22-2.21,0,0,1.23-1.11,1.23-1.11,2.45a3.78,3.78,0,0,0-3.32-1.22c0,3.67,0,4.89-1.1,6.11-5.54,0-8.85,1.22-10,1.22,0,4.89,0,8.56-1.11,9.79-1.1,0-1.1,0-1.1-1.23h0c-2.22,0-3.32,0-4.43-2.44,0,1.22-1.1,2.44-3.31,2.44,0,1.23-1.11,0-3.32-2.44,0-1.23,0-7.34-1.1-19.57V230c0-1.22,0-1.22-1.11,0,0-4.89-2.21-8.56-6.64-9.78,1.11-3.67,0-7.34,0-9.78,0,1.22,0,2.44-1.1,1.22v-4.89c0-2.44,0-3.67-1.11-4.89v4.89c0,2.45,0,3.67-1.1,3.67,0-1.22,0-1.22-1.11-1.22V219c1.1,0,1.11,0,1.11,1.22,1.1,1.22,0,1.22,0,2.45a10.49,10.49,0,0,0-1.11-3.67v1.22l-.76.43a11.46,11.46,0,0,0,.76,2c-1.11,0-1.11,0-1.11-1.23v-.55c-3.69,2.44-5.63,6.08-6.64,12.78v20.79c-2.21,0-3.32,0-3.32,2.44,0,0,0-1.22-2.21-2.44,0,2.44-1.1,3.67-3.31,2.44a2.5,2.5,0,0,1-2.22-2.44v2.44h-4.4a16.22,16.22,0,0,0,1.11,6.12c0,2.44-1.11,3.66-2.22,3.66V241c2.22-1.23,2.22-2.45,3.32-3.67-2.21,0-3.32,0-3.32-2.45v-2.44c0-1.22,1.11-1.22,1.11-2.45-3.32-2.44-6.64-2.44-8.85-1.22-6.63-1.22-17.69-1.22-31-1.22-5.53,0-8.84,0-11.05,1.22,1.1,1.22,1.1,2.45,1.1,4.89,0,1.12-.94,2.23-2.78,3.35a9.64,9.64,0,0,1,1.68,2.76v25.67h-3.32c-1.1-7.34-2.21-11-2.21-13.45,0,2.44-1.11,4.89-1.11,8.56a34.68,34.68,0,0,0-1.1,8.55c0-1.23-3.32-7.34-8.85-17.11-3.32-7.34-5.53-13.45-4.43-20.79h-4.42c-3.32-11-6.64-23.23-10-37.9,2.21-2.45,3.32-3.67,1.11-6.08H303.1v1.22c-4.38-20.64-6.59-58.16-8.8-112.54a5.79,5.79,0,0,0,1.07-6.08,17.78,17.78,0,0,1-1.11-6.07c-2.21-1.22-4.42-4.89-4.42-11,0-7.33,0-11-1.11-11v13.4a21,21,0,0,1-1.11,4.9v2.44C285.41,65,284.31,65,284.31,65v3.66c-1.11,0-1.11,0-1.11,1.23v2.44A4.81,4.81,0,0,1,284.31,76a4.43,4.43,0,0,0,1.1,2.45c-2.51,36.77-4.66,64.08-6.26,82a3.23,3.23,0,0,1,.76,0c1.11,1.22,1.11,1.22,2.21,1.22L281,164a1.13,1.13,0,0,1-1.11-1.14v-.09a1.09,1.09,0,0,0-.84-1.18c-1.16,12.91-2,20.63-2.48,23.19-1.1,0-2.21,0-2.21,1.23s0,1.22-1.11,1.22c0,1.22,0,1.22,1.11,2.44a4,4,0,0,1,1.11,2.45c-6.64,23.23-10,35.46-11.06,36.68H260V230h1.1c0,1.23,0,2.45,1.11,2.45l-1.11,1.22c-1.1,0-1.1,0-1.1,1.22a24.28,24.28,0,0,1-4.43,13.45,66.1,66.1,0,0,1-3.31,6.08c-1.11,2.44-2.22,4.89-3.32,6.11,0-1.22-1.11-2.44-2.22-3.67-1.1,0-1.1,0-1.1,1.23s0,1.22-1.11,1.22c0,0-1.1-2.45,0-3.67V252H243.4c-1.1,1.23-1.1,1.23-2.21,1.23,0-2.45-1.1-2.45-2.21-2.45h-3.32c-1.1,0-1.1,2.45-1.1,6.11s0,6.12-1.11,6.12c0-1.22-1.11-4.89-1.11-9.78a16.21,16.21,0,0,0-1.1-6.12V241c0-3.67,0-4.89-1.11-6.11,0-1.23-1.11,0-2.21,2.44v6.12c0,3.67,0,6.08,1.1,7.34-1.1,0-1.1,1.22,0,2.44a1.82,1.82,0,0,1,0,2.45v-1.22c0,1-.76,2.88-1,4.9,1,.06,1,1.2,1,1.2a2.89,2.89,0,0,1-1.1.83c0,.76,0,1.46,0,2a1.32,1.32,0,0,1,.21,1.86l-.17.17v1.23h0a1.22,1.22,0,0,1-.81-.37,2.69,2.69,0,0,1-.3.37h-2.24V225.13c-1.11,0-2.21-1.22-2.21-3.67v1.23a2.52,2.52,0,0,1-2.22,2.44h-5.53v13.45h-2.19c-1.11,0-1.11,0-2.21,1.22s-1.11,3.67-2.21,8.56c0,3.67-1.11,7.34-2.22,8.56V210.46h-59.7v50.12c-1.11,0-1.11,1.23-2.22,2.45,0,2.44-1.1,2.44-1.1,3.67a57.29,57.29,0,0,1-1.11-20.79V232.47a7.7,7.7,0,0,0-4.42,1.22,7.7,7.7,0,0,1-4.42,1.22c-1.11,2.45-1.11,7.34-1.11,13.45V263s0-1.23-1.1-1.23-1.11,0-1.11,1.23c0-1.23-1.1-3.67-1.1-6.12a16.17,16.17,0,0,0-1.11-6.11c-1.11-3.67-2.21-6.11-4.42-4.89s-3.32,1.22-2.22,1.22c-2.21,2.45-2.21,7.34-2.21,15.9,0,12.22,1.11,18.34,0,18.34h-3.32v11.7ZM719,263s1.1,0,0,1.22Zm-100.66,9.78c2.21,1.22,3.32,3.67,3.32,8.56h-3.32Zm-154.82,3.67c1.1-3.67,3.31-3.67,4.42-1.22l1.1,6.11c-1.1-1.22-1.1-1.22-2.21,0a15.38,15.38,0,0,1-2.21,3.67C463.49,282.59,462.38,280.15,463.49,276.48Zm-12.16-6.12c1.11-4.89,3.32-6.11,7.74-2.44q1.67,3.66,0,11c-1.11-1.22-1.11-1.22-1.11,0-1.1-1.22-1.1-2.44-2.21-1.22-1.1,0-1.1,1.22-2.21,2.45-3.33-2.45-3.33-6.12-2.22-9.79Zm-8.84,2.45c2.21-2.45,3.32-2.45,4.42,1.22s1.11,6.12,0,8.56l-2.21-2.44c-1.11-1.23-1.11-2.45-2.21-2.45Zm-89.62-6.11c0-3.67,0-6.12,1.11-7.34a8,8,0,0,1,5.53-2.44c2.21,0,4.42,0,5.53,1.22a6.86,6.86,0,0,1,3.32,6.07v1.26h-1.11v18.34a4.84,4.84,0,0,1-1.1-3.67h-5.53v-2.45c-1.11,0-1.11,0-1.11,1.23s0,1.22-1.11,1.22c0-3.67-1.1-4.89-2.21-3.67,0-2.44,0-4.89-1.11-6.11-1.1,0-1.1,1.22-2.21,2.44a5.67,5.67,0,0,1-1.1-3.67c0-1.21,0-2.43,1.15-2.43ZM319.69,274s1.11-1.22,1.11,0H323a3.74,3.74,0,0,1-2.21,1.23c-1.11,0-2.2,0-1.09-1.23Zm-5.51-9.78h1.11c1.11,0,1.11,1.22,1.11,1.22h-2.22Zm-4.42-22H312v2.44c0,1.23,0,1.23-1.1,1.23s-1.11,0-1.11-1.23Zm-1.1,22,1.1,1.22s0,1.23-1.1,1.23c-1.11-1.23-1.11-1.23-1.11-2.45Zm-7.74-2.44a2.5,2.5,0,0,1,2.21-2.45c1.11,0,1.11,1.22,0,2.45l1.11,1.22a1.12,1.12,0,0,0,1,1.22h-1C303.13,263,303.13,263,302,263l1.11-1.22c-1.1,1.22-1.1,1.22-2.22,0Zm3.32-19.56c0-1.22,1.1-1.22,2.21-1.22v2.41Zm0-1.22h-1.11l1.11-1.23h1.1c0,1.23,0,1.23-1.11,1.23Zm0-4.89a1.45,1.45,0,0,1-2,.18,1.53,1.53,0,0,1-.18-.18c-1.1,0-1.1-1.23-1.1-1.23a4.56,4.56,0,0,0,3.31,1.23Zm-4.43-13.45c1.11,0,1.11,0,1.11,1.22h-2.21c0-1.22,0-1.22,1.09-1.22Zm1.11,30.56c-2.21,3.67-2.21,3.67-2.21,0Zm-2.21,7.33a4,4,0,0,1,1.1-2.44c1.11,0,1.11,1.22,1.11,1.22l-1.11,2.45a1.14,1.14,0,0,1-1.11-1.15.25.25,0,0,1,0-.08h-2.22c0-1.22,0-1.22,1.11-2.44,1.1,0,1.1,1.25,1.1,2.44Zm-2.22-14.66h-2.21v-3.67h2.21Zm0,7.33v3.67a4,4,0,0,1-1.1-2.45c0-1.22,0-1.22,1.09-1.22Zm0-22h-1.1a1.11,1.11,0,0,1-1.11-1.13V230c2.2,0,2.2,1.25,2.2,1.25Zm-6.61-42.77v1.22s0,1.23-1.11,0v-2.43a12,12,0,0,1,4.43,2.45,1.44,1.44,0,0,1-2,.18,1.07,1.07,0,0,1-.19-.18c0,1.22,0,1.22-1.1,1.22C291,189.67,291,189.67,289.88,188.45Zm0-3.67s0-1.22,1.1,0V186c1.11,0,1.11-1.23,2.21,0,0-1.23,0-1.23,1.11-1.23C293.17,188.45,292.06,188.45,289.88,184.78Zm2.21-6.11c-1.11,0-1.11,0-1.11-1.22a1.12,1.12,0,0,0-1-1.22h4.34Zm-2.21-6.08a1.13,1.13,0,0,1,1.11,1.15.25.25,0,0,1,0,.08,1.13,1.13,0,0,0,1,1.21h-1a1.42,1.42,0,0,1-1.1-2.48Zm2.21-2.44H291a3.79,3.79,0,0,1-2.21-1.22H291c0,1.18,0,1.18,1.08,1.18Zm-2.21-7.38c-1.11,1.23-1.11,0-1.11-2.44h1.11l1.1,1.22C291,162.77,291,162.77,289.88,162.77Zm1.1,3.67c0,1.22,0,1.22-2.21,0v-1.22h1.11Zm0-12.23c-.5-.56-1-.85-1.41-.75a1.94,1.94,0,0,1,.31-.44c1.07,0,1.07,0,1.07,1.19Zm1.11,28.1c1.1,1.23,0,1.23,0,0-1.11,0-1.11,1.23-2.21,0H287.6c1.14-2.42,3.35-2.42,4.46,0Zm-3.32,20.79a4.79,4.79,0,0,1,1.11,3.67,1.13,1.13,0,0,1-1.11-1.14v-.08a1.12,1.12,0,0,0-1-1.22h-.09c-1.13-1.2-.06-1.2,1.08-1.2Zm-1.17,6.17,1.11,1.22h-4.42a1.14,1.14,0,0,1,1-1.22h2.29Zm-2.21-4.89v2.44c-.9,0-1.06,0-1.09-.68a1.43,1.43,0,0,1-1.12-.54h0a1.14,1.14,0,0,1,1-1.22h.08v.6c.08-.63.28-.63,1.13-.63Zm-1.1-1.23c0,1.23,0,1.23-1.11,1.23s-1.1,1.22-1.1,1.22H281v-2.45h1.11V201.9c0,1.22,1.13,1.22,2.24,1.22Zm-4.42-19.56c0,2.45,0,2.45-1.11,3.67-1.1-1.22-1.1-1.22,0-2.45a1.11,1.11,0,0,0,1.11-1.13v-.09c1.13-1.25,2.24-1.25,0,0ZM281,175s-1.1,1.22-1.1,0h-.1a16.6,16.6,0,0,0,.1-2.44c1.1,0,1.1,0,1.1,1.22Zm0-9.78H281c-.35.33-.76.76-1.16,1.22Zm-1.1,3.67c1.1,0,1.1,0,2.21,1.22-1.11,1.22-1.11,0-2.21,0,0-1.22,0-1.22-1.11-1.22Zm-1.11,8.56H281a1.11,1.11,0,0,1-1,1.21h-.08c-1.11-1.22-1.11-1.22-2.21-1.22Zm0,3.66H281a4.37,4.37,0,0,1-1.1,2.45h-2.21c1.13-1.25,2.24-2.48,1.13-2.48Zm-3.31,8.53a3.93,3.93,0,0,0,1.1-2.44l2.21,1.22v1.22Zm5.53,22h8.9c3.31,17.12,5.53,25.67,5.53,28.1h-20c1.13-4.89,3.34-14.67,5.55-28.12Zm8.52,41.9a1.16,1.16,0,0,1,.33.88c0,1.23,1.1,1.23,1.1,2.45a3.23,3.23,0,0,0-2.21-1.22v-2.45h0c.71.75,1,.56.81.32Zm.33-8.89c-1.11,0-1.11,0-1.11-1.22V241h2.21c1.11,0,1.11,0,1.11,2.45,0,1.22,0,2.44-1.11,2.44v-2.49c0,1.26,0,1.26-1.05,1.26Zm2.21,9.77c1.1-1.22,1.1-2.44,1.1-1.22,0,0,1.11,1.22,0,1.22a1.12,1.12,0,0,1-1,1.22H292c-1.11,0-1.11-1.23-1.11-2.45,1.13,0,1.13,0,1.13,1.21Zm-6.17,1.07a4.84,4.84,0,0,1-.47-2.28v1.22c0-1.22,0,0-1.1,1.23h-1.11v-1.23c0-1.22,1.11-1.22,2.21-1.22,1.11-1.22,1.11-1.22,2.21,0a4.68,4.68,0,0,1-1.71,2.26Zm-2.68-9.62a10.23,10.23,0,0,1,1.11-3.66h2.21c1.1,2.43,1.1,3.66,0,3.66q1.68-1.85-3.3,0Zm-9.95,11c-1.11-1.22-1.11,0-1.11,0v-3.67c1.11,0,1.11,0,1.11-1.22v1.22c-1.08,2.43-1.08,2.43,0,3.66Zm0,2.45c1.1,0,1.1,0,1.1,1.22-1.1,0-2.21,0-2.21-1.22,0,0,1.13-1.24,1.13,0Zm0-4.9h1.1l1.11-1.22v3.67s0-1.22-1.11-1.22Zm0-8.55a1.81,1.81,0,0,0,0-2.44l1.1,1.22v-2.44c0-1.23,1.11-1.23,2.21-1.23v3.66Zm0-13.45c1.1,0,2.21,0,2.21,1.23-1.08,0-2.19,0-2.19-1.24Zm3.31,22v-1.23l1.11,1.23h1.1a2.5,2.5,0,0,1-2.21,2.44l1.11-1.22s0-1.26-1.08-1.26Zm1.11-8.55v-3.67H281V245a12.14,12.14,0,0,0-3.29.88Zm4.42,7.32s1.11,1.23,0,1.23a1.12,1.12,0,0,1-1,1.22H281c-.76,0-1-.56-1.07-1.31,1.12-2.39,2.2-2.38,2.2-1.17Zm-7.74-22h-2.21a3.78,3.78,0,0,1,3.32-1.22c0,1.21,0,1.21-1.08,1.21Zm-4.42-8.56c1.11,0,2.21,0,2.21,1.22h-2.21Zm2.24,36.69v2.45c-1.11,0-1.11-1.23-2.22-2.45C269.94,258.14,271.05,259.39,272.16,259.39Zm-2.22-24.45c0,1.23,0,1.23-1.1,1.23h-2.21a10.26,10.26,0,0,1,3.31-1.26Zm-1.1,28.1c0-1.22,0-2.44-1.11-2.44a1.12,1.12,0,0,1,1-1.22h.09c1.1,0,1.1,1.22,1.1,2.44s0,1.22-1.1,1.22c-1.11,1.23-2.21,1.23-2.21,0s1.1-1.23,2.21,0Zm3.32,1.23q6.63-3.67,16.58-3.67c5.53,0,11.06,2.44,15.49,4.89,4.42,3.67,7.74,7.34,8.85,13.45A1.14,1.14,0,0,1,312,277.8a.25.25,0,0,1,0-.08c-2.21,1.22-2.21,0-3.32,0-1.1,1.22-2.21,1.22-2.21,2.44v-8.57l-1.11,1.22h-2.21v7.34a3.82,3.82,0,0,1-3.32-1.23c-1.1-1.22-3.32-1.22-4.42-1.22,0,1.22-1.11,1.22-2.22,1.22a3.74,3.74,0,0,0-2.21,1.23V277.7c0-1.22-1.1-1.22-2.21,0,0-2.44,0-3.67-1.11-4.89a14.76,14.76,0,0,0-2.21-3.67,1.12,1.12,0,0,0-1.1,1.14v.08c0,1.23-1.11,0-1.11-1.22-1.1,1.22-1.1,2.45-1.1,4.89,0,3.67,0,4.89-1.11,6.12-1.1,0-1.1-1.23-2.21-2.45a4.44,4.44,0,0,0-1.1-2.44,4.32,4.32,0,0,0-1.11,2.44,4.5,4.5,0,0,1-1.1,2.45c-1.11,0-1.11-1.23-1.11-2.45a4.81,4.81,0,0,0-1.11-3.67c-1.1,0-1.1,1.23-2.21,2.45,0,2.44-1.11,2.44-1.11,2.44L267.73,274c-1.1,0-1.1,1.23-2.21,2.45a4.39,4.39,0,0,1-1.11,2.44c-1.1,0-1.1,0-1.1-1.22s0-1.22-1.11-1.22a17.57,17.57,0,0,1,10-12.23Zm-10,0h1.1v1.2h-2.22c-1.09,0-1.09,0,1.12-1.22Zm-7.74,0a1.7,1.7,0,0,1,1.72.69,11.88,11.88,0,0,1-2.83.53,1.12,1.12,0,0,1,1-1.23h.1Zm0,4.89c1.1,0,1.1,0,1.1-1.23,1.11,0,1.11,1.23,0,1.23a3.8,3.8,0,0,1-3.32,1.22c0-1.24,1.11-1.24,2.22-1.24ZM251,274.87a11.79,11.79,0,0,1-3.13.4q1.58-3.47,3.13-.42Zm-20.82-33.58v0ZM229,241c0,1.2,0,1.23,1.06,1.23-.09.69-.34,1.22-1.06,1.22Zm0,7.34v-3.67c1.11,0,1.11,0,1.11,1.22,0,0,0,1.23,1.11,1.23a3.29,3.29,0,0,1-2.22,1.2Zm-63,34.23h-3.32a4.29,4.29,0,0,0-4.43-2.45v-3.68c2.22,1.22,4.43,1.22,7.75,1.22Zm0-29.35h-7.75V244.7H166Zm8.84,29.35h-7.74v-4.89a32.2,32.2,0,0,0,7.74,1.22Zm-7.74-18.34c1.11,0,1.11,0,1.11-1.23v-1.22a4.19,4.19,0,0,0-.28-1.26.86.86,0,0,0,.28,0v-1.21a2.56,2.56,0,0,0-.44.68,13.1,13.1,0,0,1-.67-4.35c0-2.44,0-3.67,1.11-3.67-1.11-1.22-1.11-3.66-1.11-6.07,0-3.67,0-4.89,1.11-4.89,0-1.22,0-1.22-1.11-1.22v-2.5h23.22c-2.19,20.77-2.19,30.55-2.19,30.55h-6.64v-2.45h-1.1c-1.11,0-1.11,1.22-1.11,2.44v2.45c-1.1,0-2.21,0-1.1,1.22-1.11,0-1.11-1.22,0-2.45-1.11,0-2.22,0-2.22,1.23v2.44c-1.1,0-1.1,0-2.21-1.22-1.11,0-1.11-1.22-2.21-1.22a3.79,3.79,0,0,1-2.21,1.22c-1.11,1.22-1.11,1.22-2.22,1.22Zm-8.85-24.45H166v2.45c-5.53,0-7.75-1.23-7.75,0Zm0,14.66H166v9.77c-2.22-1.22-4.43-1.22-7.75,0Zm0,17.12v-4.89c1.11,0,4.43-1.22,7.75-1.22v8.56a22.73,22.73,0,0,1-7.75,1.22s-1.1-1.24,0-3.68Z" transform="translate(-114.61 -41.27)"/><path class="cls-1" d="M390.49,260.58" transform="translate(-114.61 -41.27)"/></g></g></g></g><text class="cls-2" transform="translate(196.26 91.77)">Urban<tspan x="0" y="56" xml:space="preserve">   Adventures</tspan></text></svg>